<mxfile host="app.diagrams.net" agent="Mozilla/5.0 (Windows NT 10.0; Win64; x64; rv:131.0) Gecko/20100101 Firefox/131.0" version="24.7.17">
  <diagram name="Side-1" id="QbLAHG77c7EfK-rJLZJH">
    <mxGraphModel dx="1844" dy="994" grid="1" gridSize="10" guides="1" tooltips="1" connect="1" arrows="1" fold="1" page="1" pageScale="1" pageWidth="850" pageHeight="1100" math="0" shadow="0">
      <root>
        <mxCell id="0" />
        <mxCell id="1" parent="0" />
        <mxCell id="WWYR2pyVHsokWxSQ_wiY-5" value="" style="edgeStyle=orthogonalEdgeStyle;rounded=0;orthogonalLoop=1;jettySize=auto;html=1;" edge="1" parent="1" source="WWYR2pyVHsokWxSQ_wiY-1" target="WWYR2pyVHsokWxSQ_wiY-4">
          <mxGeometry relative="1" as="geometry" />
        </mxCell>
        <mxCell id="WWYR2pyVHsokWxSQ_wiY-1" value="START" style="ellipse;whiteSpace=wrap;html=1;fillColor=#d5e8d4;strokeColor=#82b366;" vertex="1" parent="1">
          <mxGeometry x="100" y="40" width="120" height="80" as="geometry" />
        </mxCell>
        <mxCell id="WWYR2pyVHsokWxSQ_wiY-7" value="JA" style="edgeStyle=orthogonalEdgeStyle;rounded=0;orthogonalLoop=1;jettySize=auto;html=1;exitX=0;exitY=0.5;exitDx=0;exitDy=0;entryX=0.5;entryY=0;entryDx=0;entryDy=0;" edge="1" parent="1" source="WWYR2pyVHsokWxSQ_wiY-4" target="WWYR2pyVHsokWxSQ_wiY-6">
          <mxGeometry x="0.3333" relative="1" as="geometry">
            <mxPoint as="offset" />
          </mxGeometry>
        </mxCell>
        <mxCell id="WWYR2pyVHsokWxSQ_wiY-11" style="edgeStyle=orthogonalEdgeStyle;rounded=0;orthogonalLoop=1;jettySize=auto;html=1;exitX=1;exitY=0.5;exitDx=0;exitDy=0;" edge="1" parent="1" source="WWYR2pyVHsokWxSQ_wiY-4">
          <mxGeometry relative="1" as="geometry">
            <mxPoint x="240" y="280" as="targetPoint" />
            <Array as="points">
              <mxPoint x="240" y="240" />
            </Array>
          </mxGeometry>
        </mxCell>
        <mxCell id="WWYR2pyVHsokWxSQ_wiY-12" value="NEJ" style="edgeLabel;html=1;align=center;verticalAlign=middle;resizable=0;points=[];" vertex="1" connectable="0" parent="WWYR2pyVHsokWxSQ_wiY-11">
          <mxGeometry x="-0.2222" relative="1" as="geometry">
            <mxPoint x="-11" as="offset" />
          </mxGeometry>
        </mxCell>
        <mxCell id="WWYR2pyVHsokWxSQ_wiY-4" value="kører uendeligt loop?" style="rhombus;whiteSpace=wrap;html=1;" vertex="1" parent="1">
          <mxGeometry x="120" y="200" width="80" height="80" as="geometry" />
        </mxCell>
        <mxCell id="WWYR2pyVHsokWxSQ_wiY-9" value="" style="edgeStyle=orthogonalEdgeStyle;rounded=0;orthogonalLoop=1;jettySize=auto;html=1;" edge="1" parent="1" source="WWYR2pyVHsokWxSQ_wiY-6" target="WWYR2pyVHsokWxSQ_wiY-8">
          <mxGeometry relative="1" as="geometry" />
        </mxCell>
        <mxCell id="WWYR2pyVHsokWxSQ_wiY-6" value="&lt;div&gt;Aflæs IMU&lt;/div&gt;&lt;div&gt;data&lt;br&gt;&lt;/div&gt;" style="shape=parallelogram;perimeter=parallelogramPerimeter;whiteSpace=wrap;html=1;fixedSize=1;" vertex="1" parent="1">
          <mxGeometry x="20" y="290" width="120" height="60" as="geometry" />
        </mxCell>
        <mxCell id="WWYR2pyVHsokWxSQ_wiY-14" value="" style="edgeStyle=orthogonalEdgeStyle;rounded=0;orthogonalLoop=1;jettySize=auto;html=1;" edge="1" parent="1" source="WWYR2pyVHsokWxSQ_wiY-8" target="WWYR2pyVHsokWxSQ_wiY-13">
          <mxGeometry relative="1" as="geometry" />
        </mxCell>
        <mxCell id="WWYR2pyVHsokWxSQ_wiY-15" value="NEJ" style="edgeLabel;html=1;align=center;verticalAlign=middle;resizable=0;points=[];" vertex="1" connectable="0" parent="WWYR2pyVHsokWxSQ_wiY-14">
          <mxGeometry x="-0.3" y="1" relative="1" as="geometry">
            <mxPoint as="offset" />
          </mxGeometry>
        </mxCell>
        <mxCell id="WWYR2pyVHsokWxSQ_wiY-23" value="" style="edgeStyle=orthogonalEdgeStyle;rounded=0;orthogonalLoop=1;jettySize=auto;html=1;exitX=0;exitY=0.5;exitDx=0;exitDy=0;" edge="1" parent="1" source="WWYR2pyVHsokWxSQ_wiY-8" target="WWYR2pyVHsokWxSQ_wiY-22">
          <mxGeometry relative="1" as="geometry" />
        </mxCell>
        <mxCell id="WWYR2pyVHsokWxSQ_wiY-24" value="JA" style="edgeLabel;html=1;align=center;verticalAlign=middle;resizable=0;points=[];" vertex="1" connectable="0" parent="WWYR2pyVHsokWxSQ_wiY-23">
          <mxGeometry x="0.0182" y="-2" relative="1" as="geometry">
            <mxPoint as="offset" />
          </mxGeometry>
        </mxCell>
        <mxCell id="WWYR2pyVHsokWxSQ_wiY-8" value="Er der kraftig nedbremsning?" style="rhombus;whiteSpace=wrap;html=1;" vertex="1" parent="1">
          <mxGeometry x="100" y="390" width="120" height="120" as="geometry" />
        </mxCell>
        <mxCell id="WWYR2pyVHsokWxSQ_wiY-10" value="STOP" style="ellipse;whiteSpace=wrap;html=1;fillColor=#f8cecc;strokeColor=#b85450;" vertex="1" parent="1">
          <mxGeometry x="180" y="280" width="120" height="80" as="geometry" />
        </mxCell>
        <mxCell id="WWYR2pyVHsokWxSQ_wiY-13" value="A" style="ellipse;whiteSpace=wrap;html=1;" vertex="1" parent="1">
          <mxGeometry x="280" y="410" width="80" height="80" as="geometry" />
        </mxCell>
        <mxCell id="WWYR2pyVHsokWxSQ_wiY-17" style="edgeStyle=orthogonalEdgeStyle;rounded=0;orthogonalLoop=1;jettySize=auto;html=1;" edge="1" parent="1" source="WWYR2pyVHsokWxSQ_wiY-16">
          <mxGeometry relative="1" as="geometry">
            <mxPoint x="160" y="160" as="targetPoint" />
          </mxGeometry>
        </mxCell>
        <mxCell id="WWYR2pyVHsokWxSQ_wiY-16" value="A" style="ellipse;whiteSpace=wrap;html=1;" vertex="1" parent="1">
          <mxGeometry x="40" y="120" width="80" height="80" as="geometry" />
        </mxCell>
        <mxCell id="WWYR2pyVHsokWxSQ_wiY-22" value="&lt;div&gt;Tænd rødt&lt;/div&gt;&lt;div&gt;neopixel lys&lt;br&gt;&lt;/div&gt;" style="shape=parallelogram;perimeter=parallelogramPerimeter;whiteSpace=wrap;html=1;fixedSize=1;" vertex="1" parent="1">
          <mxGeometry x="10" y="510" width="120" height="60" as="geometry" />
        </mxCell>
        <mxCell id="WWYR2pyVHsokWxSQ_wiY-28" style="edgeStyle=orthogonalEdgeStyle;rounded=0;orthogonalLoop=1;jettySize=auto;html=1;entryX=0.5;entryY=0;entryDx=0;entryDy=0;" edge="1" parent="1" source="WWYR2pyVHsokWxSQ_wiY-25" target="WWYR2pyVHsokWxSQ_wiY-27">
          <mxGeometry relative="1" as="geometry" />
        </mxCell>
        <mxCell id="WWYR2pyVHsokWxSQ_wiY-25" value="&lt;div&gt;Vent&lt;/div&gt;&lt;div&gt;1 sekund&lt;br&gt;&lt;/div&gt;" style="strokeWidth=2;html=1;shape=mxgraph.flowchart.delay;whiteSpace=wrap;" vertex="1" parent="1">
          <mxGeometry x="20" y="610" width="100" height="60" as="geometry" />
        </mxCell>
        <mxCell id="WWYR2pyVHsokWxSQ_wiY-26" style="edgeStyle=orthogonalEdgeStyle;rounded=0;orthogonalLoop=1;jettySize=auto;html=1;entryX=0.5;entryY=0;entryDx=0;entryDy=0;entryPerimeter=0;" edge="1" parent="1" source="WWYR2pyVHsokWxSQ_wiY-22" target="WWYR2pyVHsokWxSQ_wiY-25">
          <mxGeometry relative="1" as="geometry" />
        </mxCell>
        <mxCell id="WWYR2pyVHsokWxSQ_wiY-30" style="edgeStyle=orthogonalEdgeStyle;rounded=0;orthogonalLoop=1;jettySize=auto;html=1;exitX=0.5;exitY=1;exitDx=0;exitDy=0;entryX=0.5;entryY=0;entryDx=0;entryDy=0;" edge="1" parent="1" source="WWYR2pyVHsokWxSQ_wiY-27" target="WWYR2pyVHsokWxSQ_wiY-29">
          <mxGeometry relative="1" as="geometry" />
        </mxCell>
        <mxCell id="WWYR2pyVHsokWxSQ_wiY-27" value="&lt;div&gt;Sluk rødt&lt;/div&gt;&lt;div&gt;neopixel lys&lt;br&gt;&lt;/div&gt;" style="shape=parallelogram;perimeter=parallelogramPerimeter;whiteSpace=wrap;html=1;fixedSize=1;" vertex="1" parent="1">
          <mxGeometry x="10" y="700" width="120" height="60" as="geometry" />
        </mxCell>
        <mxCell id="WWYR2pyVHsokWxSQ_wiY-29" value="A" style="ellipse;whiteSpace=wrap;html=1;" vertex="1" parent="1">
          <mxGeometry x="30" y="800" width="80" height="80" as="geometry" />
        </mxCell>
      </root>
    </mxGraphModel>
  </diagram>
</mxfile>
